<svg width="800" height="800" viewBox="0 0 800 800" fill="none" xmlns="http://www.w3.org/2000/svg">
<path d="M250 443.525V525C250 538.8 261.2 550 275 550H307.375L325.1 727.5C326.4 740.275 337.15 750 350 750H450C462.85 750 473.6 740.275 474.875 727.5L492.6 550H525C538.8 550 550 538.8 550 525V443.525C550 391.95 508.05 350 456.475 350H400H343.525C291.95 350 250 391.95 250 443.525ZM456.475 400C480.475 400 500 419.525 500 443.525V500H470C457.15 500 446.4 509.725 445.125 522.5L427.375 700H372.625L354.9 522.5C353.6 509.725 342.85 500 330 500H300V443.525C300 419.525 319.525 400 343.525 400H456.475Z" fill="#FAD25B"/>
<path d="M300 250C300 305.15 344.85 350 400 350C455.15 350 500 305.15 500 250V223.325C500 182.9 467.1 150 426.675 150H373.325C332.9 150 300 182.9 300 223.325V250ZM341 223.325C341 210.45 353.625 185.5 366.5 185.5H432.5C445.375 185.5 457.5 210.45 457.5 223.325V265C457.5 292.575 427.575 309 400 309C372.425 309 341 277.575 341 250V223.325Z" fill="black"/>
<path d="M656.475 250H600H543.525C529.725 250 518.525 261.2 518.525 275C518.525 288.8 529.725 300 543.525 300H656.475C680.475 300 700 319.525 700 343.525V400H670C657.15 400 646.4 409.725 645.125 422.5L627.375 600H550C536.2 600 525 611.2 525 625C525 638.8 536.2 650 550 650H650C662.85 650 673.6 640.275 674.875 627.5L692.6 450H725C738.8 450 750 438.8 750 425V343.525C750 291.95 708.05 250 656.475 250Z" fill="black"/>
<path d="M75 450H107.375L125.1 627.5C126.4 640.275 137.15 650 150 650H250C263.8 650 275 638.8 275 625C275 611.2 263.8 600 250 600H172.625L154.9 422.5C153.6 409.725 142.85 400 130 400H100V343.525C100 319.525 119.525 300 143.525 300H256.475C270.275 300 281.475 288.8 281.475 275C281.475 261.2 270.275 250 256.475 250H200H143.525C91.95 250 50 291.95 50 343.525V425C50 438.8 61.2 450 75 450Z" fill="black"/>
<path d="M700 150V123.325C700 82.9 667.1 50 626.675 50H573.325C532.9 50 500 82.9 500 123.325V150C500 205.15 544.85 250 600 250C655.15 250 700 205.15 700 150ZM650 150C650 177.575 627.575 200 600 200C572.425 200 550 177.575 550 150V123.325C550 110.45 560.45 100 573.325 100H626.675C639.55 100 650 110.45 650 123.325V150Z" fill="black"/>
<path d="M300 150V123.325C300 82.9 267.1 50 226.675 50H173.325C132.9 50 100 82.9 100 123.325V150C100 205.15 144.85 250 200 250C255.15 250 300 205.15 300 150ZM256 158.5C256 186.075 227.575 214 200 214C172.425 214 137 177.575 137 150V115C137 102.125 160.45 89.5 173.325 89.5H226.675C239.55 89.5 256 110.45 256 123.325V158.5Z" fill="black"/>
</svg>
