<svg width="338" height="332" viewBox="0 0 338 332" fill="none" xmlns="http://www.w3.org/2000/svg">
<path d="M337.559 64.843V36.513C337.559 19.007 323.317 4.765 305.811 4.765H251.239C246.307 1.744 240.512 5.14373e-08 234.317 5.14373e-08H32.5C14.58 -0.000999949 0 14.579 0 32.499V299.337C0 317.258 14.58 331.837 32.5 331.837H234.316C240.512 331.837 246.308 330.092 251.241 327.07H305.81C323.316 327.07 337.558 312.828 337.558 295.322V266.992C337.558 257.277 333.167 248.572 326.271 242.744C333.167 236.916 337.558 228.211 337.558 218.496V190.165C337.558 180.45 333.167 171.745 326.271 165.917C333.167 160.089 337.558 151.384 337.558 141.669V113.339C337.558 103.624 333.167 94.919 326.271 89.091C333.168 83.262 337.559 74.557 337.559 64.843ZM251.816 299.337C251.816 308.986 243.965 316.837 234.316 316.837H32.5C22.851 316.837 15 308.986 15 299.337V32.499C15 22.85 22.851 14.999 32.5 14.999H234.316C243.965 14.999 251.816 22.85 251.816 32.499V299.337ZM322.559 295.323C322.559 304.558 315.046 312.071 305.811 312.071H264.216C265.889 308.159 266.817 303.855 266.817 299.338V250.245H305.811C315.046 250.245 322.559 257.758 322.559 266.993V295.323ZM322.559 218.496C322.559 227.731 315.046 235.244 305.811 235.244H266.817V173.417H305.811C315.046 173.417 322.559 180.93 322.559 190.165V218.496ZM322.559 141.669C322.559 150.904 315.046 158.417 305.811 158.417H266.817V96.59H305.811C315.046 96.59 322.559 104.103 322.559 113.338V141.669ZM322.559 64.843C322.559 74.078 315.046 81.591 305.811 81.591H266.817V32.499C266.817 27.981 265.888 23.677 264.215 19.764H305.811C315.046 19.764 322.559 27.277 322.559 36.512V64.843Z" fill="black"/>
<path d="M226.404 227.163H40.413V242.163H226.404V227.163Z" fill="black"/>
<path d="M66.891 203.34H199.926C202.189 203.34 204.331 202.319 205.755 200.56C207.179 198.801 207.733 196.494 207.262 194.281C203.667 177.374 194.191 162.105 180.788 151.261C189.57 140.443 194.477 126.823 194.477 112.739C194.477 79.065 167.081 51.669 133.407 51.669C99.733 51.669 72.337 79.065 72.337 112.739C72.337 126.823 77.245 140.443 86.026 151.261C72.624 162.105 63.148 177.373 59.554 194.281C59.083 196.494 59.637 198.802 61.061 200.56C62.486 202.319 64.628 203.34 66.891 203.34ZM101.343 158.723C103.331 157.478 104.622 155.373 104.831 153.036C105.04 150.699 104.144 148.399 102.409 146.82C92.83 138.102 87.337 125.68 87.337 112.739C87.337 87.336 108.004 66.669 133.407 66.669C158.81 66.669 179.477 87.336 179.477 112.739C179.477 125.68 173.983 138.102 164.405 146.82C162.67 148.399 161.774 150.699 161.983 153.036C162.192 155.373 163.483 157.477 165.471 158.723C176.625 165.712 185.206 176.213 189.891 188.341H76.923C81.608 176.213 90.189 165.71 101.343 158.723Z" fill="#FAD25B"/>
<path d="M202.986 256.827H63.83V271.827H202.986V256.827Z" fill="black"/>
</svg>
