<svg width="200" height="200" viewBox="0 0 200 200" fill="none" xmlns="http://www.w3.org/2000/svg">
<path d="M177.778 33.3333H22.2222C19.2753 33.3333 16.4492 34.504 14.3655 36.5877C12.2817 38.6714 11.1111 41.4976 11.1111 44.4445V155.556C11.1111 158.502 12.2817 161.329 14.3655 163.412C16.4492 165.496 19.2753 166.667 22.2222 166.667H177.778C180.725 166.667 183.551 165.496 185.634 163.412C187.718 161.329 188.889 158.502 188.889 155.556V44.4445C188.889 41.4976 187.718 38.6714 185.634 36.5877C183.551 34.504 180.725 33.3333 177.778 33.3333ZM182 159.5H101H17.5V97.5V40H101H182V97.5V159.5Z" fill="black"/>
<path d="M50 77.7778H150C151.473 77.7778 152.887 77.1925 153.928 76.1506C154.97 75.1087 155.556 73.6956 155.556 72.2222C155.556 70.7488 154.97 69.3357 153.928 68.2938C152.887 67.252 151.473 66.6667 150 66.6667H50C48.5266 66.6667 47.1135 67.252 46.0716 68.2938C45.0298 69.3357 44.4445 70.7488 44.4445 72.2222C44.4445 73.6956 45.0298 75.1087 46.0716 76.1506C47.1135 77.1925 48.5266 77.7778 50 77.7778Z" fill="#FAD25B"/>
<path d="M50 100H150C151.473 100 152.887 99.4147 153.928 98.3728C154.97 97.3309 155.556 95.9179 155.556 94.4444C155.556 92.971 154.97 91.5579 153.928 90.5161C152.887 89.4742 151.473 88.8889 150 88.8889H50C48.5266 88.8889 47.1135 89.4742 46.0716 90.5161C45.0298 91.5579 44.4445 92.971 44.4445 94.4444C44.4445 95.9179 45.0298 97.3309 46.0716 98.3728C47.1135 99.4147 48.5266 100 50 100Z" fill="#FAD25B"/>
<path d="M50 122.222H105.556C107.029 122.222 108.442 121.637 109.484 120.595C110.526 119.553 111.111 118.14 111.111 116.667C111.111 115.193 110.526 113.78 109.484 112.738C108.442 111.696 107.029 111.111 105.556 111.111H50C48.5266 111.111 47.1135 111.696 46.0716 112.738C45.0298 113.78 44.4445 115.193 44.4445 116.667C44.4445 118.14 45.0298 119.553 46.0716 120.595C47.1135 121.637 48.5266 122.222 50 122.222Z" fill="#FAD25B"/>
</svg>
