<svg width="800" height="800" viewBox="0 0 800 800" fill="none" xmlns="http://www.w3.org/2000/svg">
<g clip-path="url(#clip0_9_80)">
<path d="M113.806 506.048L81.8328 474.073C50.5062 442.747 30.7172 401.227 26.1156 357.162C25.3656 349.97 18.9203 344.75 11.7328 345.502C4.5406 346.255 -0.679717 352.692 0.0718458 359.884C5.29685 409.9 27.7593 457.03 63.3187 492.589L95.2922 524.563C97.8484 527.119 101.2 528.398 104.55 528.398C107.9 528.398 111.252 527.12 113.808 524.563C118.92 519.45 118.92 511.161 113.806 506.048Z" fill="black"/>
<path d="M537.033 306.2C531.916 301.088 523.628 301.089 518.516 306.203L462.847 361.894C457.736 367.008 457.738 375.297 462.85 380.409C465.408 382.966 468.758 384.242 472.108 384.242C475.458 384.242 478.809 382.963 481.367 380.405L537.036 324.714C542.148 319.6 542.147 311.311 537.033 306.2Z" fill="#FAD25B"/>
<path d="M576.23 360.648C571.112 355.533 562.822 355.536 557.714 360.65L466.9 451.484C461.788 456.597 461.787 464.887 466.902 470C469.459 472.556 472.808 473.833 476.158 473.833C479.509 473.833 482.861 472.555 485.417 469.997L576.231 379.162C581.345 374.05 581.345 365.759 576.23 360.648Z" fill="#FAD25B"/>
<path d="M788.267 258.892C781.078 258.133 774.634 263.361 773.886 270.553C769.28 314.619 749.492 356.139 718.164 387.466L558.697 546.931C554.917 550.711 549.894 552.792 544.548 552.792C539.203 552.792 534.181 550.711 530.4 546.93C526.62 543.15 524.539 538.127 524.539 532.781C524.539 527.436 526.62 522.411 530.4 518.633C530.425 518.608 530.444 518.583 530.466 518.559L632.845 416.18C637.958 411.067 637.958 402.777 632.845 397.664C627.73 392.552 619.442 392.552 614.328 397.664L493.916 518.077C491.698 511.728 488.059 505.77 482.994 500.705L422.031 439.744L453.434 408.341C458.547 403.228 458.547 394.938 453.434 389.825C448.322 384.714 440.033 384.709 434.917 389.825L403.516 421.227L303.258 320.97C303.003 320.716 302.477 320.189 302.898 319.166C303.32 318.144 304.069 318.142 304.427 318.142L360.659 318.053C387.564 318.011 409.419 296.088 409.375 269.181C409.333 242.308 387.448 220.466 360.583 220.466C360.567 220.466 360.55 220.466 360.536 220.466L141.467 220.672C134.234 220.678 128.38 226.547 128.386 233.777C128.392 241.003 134.253 246.858 141.478 246.858C141.481 246.858 141.488 246.858 141.491 246.858L360.559 246.652C360.567 246.652 360.573 246.652 360.58 246.652C373.027 246.652 383.167 256.773 383.189 269.223C383.208 281.689 373.081 291.848 360.617 291.867L304.386 291.956C293.095 291.973 283.011 298.728 278.698 309.164C274.384 319.6 276.758 331.502 284.742 339.488L464.477 519.222C472.258 527.003 472.275 539.644 464.541 547.452L464.472 547.52C464.459 547.533 464.452 547.545 464.439 547.556C460.663 551.314 455.655 553.386 450.325 553.386C444.98 553.386 439.956 551.305 436.177 547.525L281.473 392.822C276.361 387.706 268.07 387.709 262.958 392.822C257.845 397.934 257.845 406.225 262.958 411.338L447.138 595.519C454.941 603.32 454.941 616.017 447.138 623.819C443.358 627.598 438.334 629.68 432.989 629.68C427.644 629.68 422.619 627.598 418.841 623.819L242.278 447.255C237.166 442.142 228.875 442.142 223.762 447.255C218.65 452.367 218.65 460.658 223.762 465.77L363.828 605.836C371.625 613.639 371.623 626.331 363.822 634.13C356.019 641.931 343.323 641.931 335.522 634.13L185.664 484.272C180.553 479.159 172.263 479.159 167.148 484.272C162.036 489.384 162.036 497.675 167.148 502.788L269.603 605.244C277.403 613.047 277.402 625.741 269.602 633.541C265.822 637.32 260.797 639.402 255.452 639.402C250.106 639.402 245.08 637.32 241.3 633.541L146.67 538.906C141.558 533.794 133.267 533.794 128.155 538.906C123.042 544.019 123.042 552.309 128.155 557.422L222.786 652.053C231.511 660.78 243.113 665.584 255.452 665.584C267.791 665.584 279.392 660.78 288.117 652.053C293.183 646.988 296.825 641.03 299.041 634.678L317.006 652.644C326.013 661.65 337.844 666.152 349.672 666.152C361.502 666.152 373.331 661.647 382.338 652.644C387.403 647.578 391.045 641.617 393.261 635.267L400.323 642.33C409.048 651.055 420.65 655.859 432.989 655.859C445.33 655.859 456.931 651.055 465.656 642.328C483.667 624.316 483.667 595.008 465.656 576.997L465.633 576.973C472.092 574.712 478.011 571.016 482.994 566.033C483.039 565.987 483.08 565.941 483.125 565.895L500.941 548.08C503.202 554.539 506.9 560.462 511.883 565.444C520.608 574.17 532.209 578.975 544.548 578.975C556.889 578.975 568.491 574.17 577.216 565.444L736.683 405.978C772.241 370.42 794.702 323.291 799.928 273.273C800.68 266.083 795.459 259.644 788.267 258.892Z" fill="black"/>
<path d="M702.887 285.964C700.283 279.22 692.706 275.861 685.958 278.466C665.727 286.273 643.917 287.845 622.878 283.019C615.83 281.4 608.805 285.802 607.188 292.848C605.57 299.895 609.97 306.922 617.017 308.539C626.936 310.817 636.986 311.95 647.019 311.95C663.436 311.95 679.794 308.914 695.387 302.894C702.134 300.289 705.491 292.711 702.887 285.964Z" fill="#FAD25B"/>
<path d="M658.53 134.056L439.023 133.848C439.008 133.848 438.994 133.848 438.98 133.848C412.355 133.848 390.666 155.498 390.623 182.123L390.622 183.003C390.602 195.919 395.611 208.07 404.731 217.217C413.848 226.37 425.984 231.419 438.902 231.437L499.558 231.533L379.366 351.725C374.253 356.838 374.253 365.128 379.366 370.241C381.922 372.797 385.273 374.077 388.623 374.077C391.973 374.077 395.325 372.798 397.881 370.241L527.245 240.877C538.631 261.17 554.969 278.005 575.294 290.142C577.397 291.398 579.711 291.997 581.995 291.997C586.452 291.997 590.797 289.72 593.248 285.616C596.955 279.408 594.928 271.369 588.72 267.661C567.819 255.18 552.125 236.544 543.336 213.772C543.327 213.747 543.309 213.728 543.302 213.703C541.394 208.848 536.677 205.402 531.142 205.394L438.942 205.248C433.019 205.239 427.458 202.923 423.275 198.73C419.094 194.534 416.798 188.964 416.808 183.048L416.809 182.169C416.828 169.959 426.772 160.033 438.98 160.033C438.986 160.033 438.994 160.033 439 160.033L658.506 160.241C658.509 160.241 658.516 160.241 658.519 160.241C665.744 160.241 671.605 154.386 671.611 147.159C671.617 139.93 665.761 134.064 658.53 134.056Z" fill="#FAD25B"/>
</g>
<defs>
<clipPath id="clip0_9_80">
<rect width="800" height="800" fill="white"/>
</clipPath>
</defs>
</svg>
