<svg width="800" height="800" viewBox="0 0 800 800" fill="none" xmlns="http://www.w3.org/2000/svg">
<path fill-rule="evenodd" clip-rule="evenodd" d="M349.4 350.573C344.187 355.787 344.187 364.213 349.4 369.427L429.4 449.427C432 452.027 435.413 453.333 438.827 453.333C442.24 453.333 445.653 452.027 448.253 449.427C453.467 444.213 453.467 435.787 448.253 430.573L368.253 350.573C363.04 345.36 354.613 345.36 349.4 350.573ZM314.92 403.907C309.707 398.693 301.28 398.693 296.067 403.907C290.853 409.12 290.853 417.547 296.067 422.76L376.067 502.76C378.667 505.36 382.08 506.667 385.493 506.667C388.907 506.667 392.32 505.36 394.92 502.76C400.133 497.547 400.133 489.12 394.92 483.907L314.92 403.907ZM261.587 457.24C256.373 452.027 247.947 452.027 242.733 457.24C237.52 462.453 237.52 470.88 242.733 476.093L322.733 556.093C325.333 558.693 328.747 560 332.16 560C335.573 560 338.987 558.693 341.587 556.093C346.8 550.88 346.8 542.453 341.587 537.24L261.587 457.24ZM513.307 426.667L372.16 285.52L177.68 480L318.827 621.147L513.307 426.667ZM381.587 257.24L541.587 417.24C546.8 422.453 546.8 430.88 541.587 436.093L328.253 649.427C325.653 652.027 322.24 653.333 318.827 653.333C315.413 653.333 312 652.027 309.4 649.427L149.4 489.427C144.187 484.213 144.187 475.787 149.4 470.573L362.733 257.24C367.947 252.027 376.373 252.027 381.587 257.24ZM691.827 487.667C685.453 483.92 677.293 486.067 673.573 492.427L520.747 753.093C509.707 772.2 485.187 778.773 466.68 768.107L436.907 748.813C430.747 744.8 422.48 746.573 418.48 752.747C414.467 758.933 416.227 767.187 422.413 771.187L452.76 790.853C463.227 796.893 474.68 799.76 485.987 799.76C509.04 799.76 531.48 787.827 543.787 766.507L696.573 505.907C700.293 499.56 698.173 491.4 691.827 487.667ZM798.827 66.6667V280C798.827 321.253 785.707 351.987 754.92 382.76L358.947 779.293C346.347 791.893 329.6 798.813 311.787 798.813C293.973 798.813 277.24 791.893 264.667 779.293L19.5333 534.173C6.93333 521.573 0 504.827 0 487.013C0 469.2 6.93333 452.467 19.5333 439.88L365.853 94.0267C275.293 73.44 219.093 72.0533 202.64 76.8667C209.587 83.9733 231.227 99.0667 283.453 119.653C290.307 122.36 293.667 130.093 290.973 136.947C288.267 143.8 280.52 147.12 273.68 144.467C165.573 101.853 171.893 78.2267 174.28 69.3333C179.227 50.8 205.64 44.6267 259.747 49.36C303.813 53.2133 360.693 64.08 419.907 79.9333C479.12 95.8 533.787 114.827 573.867 133.533C623.133 156.507 642.88 175.027 637.907 193.573C633.107 211.467 608.16 213.653 599.96 214.373C599.573 214.413 599.173 214.427 598.787 214.427C591.947 214.427 586.133 209.187 585.52 202.253C584.867 194.92 590.293 188.453 597.64 187.813C603.32 187.32 607.093 186.547 609.533 185.853C603.827 179.893 589.387 170.6 566.293 159.533C561.453 167.693 558.827 177.067 558.827 186.667C558.827 216.08 582.747 240 612.16 240C641.573 240 665.493 216.08 665.493 186.667C665.493 157.253 641.573 133.333 612.16 133.333C604.787 133.333 598.827 127.373 598.827 120C598.827 112.627 604.787 106.667 612.16 106.667C656.28 106.667 692.16 142.547 692.16 186.667C692.16 230.787 656.28 266.667 612.16 266.667C568.04 266.667 532.16 230.787 532.16 186.667C532.16 173.293 535.68 160.267 541.96 148.64C510.053 135.24 467.253 120.24 413.013 105.693C407.293 104.16 401.787 102.76 396.28 101.36L38.3867 458.747C30.8267 466.293 26.6667 476.347 26.6667 487.013C26.6667 497.707 30.8267 507.747 38.3867 515.307L283.52 760.44C298.627 775.547 324.973 775.547 340.08 760.44L736.053 363.907C762.04 337.933 772.16 314.4 772.16 280V66.6667C772.16 44.6133 754.213 26.6667 732.16 26.6667H518.827C484.427 26.6667 460.893 36.7867 434.92 62.76C429.707 67.9733 421.28 67.9733 416.067 62.76C410.853 57.5467 410.853 49.12 416.067 43.9067C446.84 13.12 477.573 0 518.827 0H732.16C768.92 0 798.827 29.9067 798.827 66.6667Z" fill="black"/>
<rect x="340.756" y="359.922" width="25.7591" height="139.444" rx="12.8795" transform="rotate(-45.0913 340.756 359.922)" fill="#FFC003"/>
<rect x="287" y="413.243" width="25.7591" height="139.444" rx="12.8795" transform="rotate(-45.0913 287 413.243)" fill="#FFC003"/>
<rect x="233" y="466.243" width="25.7591" height="139.444" rx="12.8795" transform="rotate(-45.0913 233 466.243)" fill="#FFC003"/>
</svg>
