<svg width="800" height="800" viewBox="0 0 800 800" fill="none" xmlns="http://www.w3.org/2000/svg">
<g clip-path="url(#clip0_4_14)">
<path d="M777.974 427.368C791.974 413.368 800 393.987 800 374.194C800 354.4 791.974 335.019 777.974 321.019L670.968 214.013L549.497 335.484L601.11 387.097L387.097 601.11L335.484 549.497L214.013 670.968L321.019 777.974C335.019 791.974 354.4 800 374.194 800C393.987 800 413.368 791.974 427.368 777.974L457.136 748.207C494.877 781.574 542.748 800 593.548 800C707.381 800 800 707.381 800 593.548C800 542.736 781.574 494.852 748.206 457.136L777.974 427.368ZM585.987 335.484L670.968 250.503L691.432 270.968L606.452 355.948L585.987 335.484ZM250.503 670.968L335.484 585.987L355.948 606.452L270.968 691.432L250.503 670.968ZM438.439 730.4L409.123 759.729C399.923 768.929 387.2 774.194 374.194 774.194C361.187 774.194 348.465 768.929 339.265 759.729L289.213 709.677L374.194 624.697L387.097 637.6L637.6 387.097L624.697 374.194L709.677 289.213L759.729 339.265C768.929 348.465 774.194 361.187 774.194 374.194C774.194 387.2 768.929 399.923 759.729 409.123L730.413 438.439L438.439 730.4ZM774.194 593.548C774.194 693.161 693.161 774.194 593.548 774.194C549.626 774.194 508.09 758.619 475.252 730.09L730.09 475.252C758.619 508.077 774.194 549.613 774.194 593.548Z" fill="black" stroke="black" stroke-width="1.6129"/>
<path d="M335.484 541.935V493.884C351.987 489.11 367.897 482.516 382.968 474.194L416.955 508.194L508.194 416.955L474.194 382.968C482.529 367.897 489.11 352 493.884 335.484H541.935V206.452H493.884C489.11 189.948 482.516 174.039 474.194 158.968L508.194 124.981L416.955 33.7419L382.968 67.7419C367.897 59.4065 352 52.8258 335.484 48.0516V0H206.452V48.0516C189.948 52.8258 174.039 59.4194 158.968 67.7419L124.981 33.7419L33.7419 124.981L67.7419 158.968C59.4065 174.039 52.8258 189.935 48.0516 206.452H0V335.484H48.0516C52.8258 351.987 59.4194 367.897 67.7419 382.968L33.7419 416.955L124.981 508.194L158.968 474.194C174.039 482.529 189.935 489.11 206.452 493.884V541.935H335.484ZM163.6 447.045L154.929 441.755L124.994 471.703L70.2452 416.955L100.194 387.019L94.9032 378.348C83.7419 360.077 75.5355 340.297 70.5161 319.561L68.129 309.677H25.8065V232.258H68.129L70.5161 222.374C75.5355 201.652 83.729 181.858 94.9032 163.587L100.194 154.916L70.2452 124.981L124.994 70.2323L154.929 100.181L163.6 94.8903C181.871 83.729 201.652 75.5226 222.387 70.5032L232.258 68.129V25.8065H309.677V68.129L319.561 70.5161C340.284 75.5355 360.077 83.729 378.348 94.9032L387.019 100.194L416.955 70.2452L471.703 124.994L441.755 154.929L447.045 163.6C458.206 181.871 466.413 201.652 471.432 222.387L473.806 232.258H516.129V309.677H473.806L471.419 319.561C466.4 340.284 458.206 360.077 447.032 378.348L441.742 387.019L471.69 416.955L416.942 471.703L387.006 441.755L378.335 447.045C360.065 458.206 340.284 466.413 319.548 471.432L309.677 473.806V516.129H232.258V473.806L222.374 471.419C201.652 466.4 181.871 458.206 163.6 447.045Z" fill="#FAD25B" stroke="#FAD25B" stroke-width="1.6129"/>
<path d="M412.903 270.968C412.903 192.71 349.226 129.032 270.968 129.032C192.71 129.032 129.032 192.71 129.032 270.968C129.032 349.226 192.71 412.903 270.968 412.903C349.226 412.903 412.903 349.226 412.903 270.968ZM154.839 270.968C154.839 206.929 206.929 154.839 270.968 154.839C335.006 154.839 387.097 206.929 387.097 270.968C387.097 335.006 335.006 387.097 270.968 387.097C206.929 387.097 154.839 335.006 154.839 270.968Z" fill="black" stroke="black" stroke-width="1.6129"/>
<path d="M390.872 563.963L409.12 545.716L383.318 519.913L365.07 538.161L390.872 563.963Z" fill="black" stroke="black" stroke-width="1.6129"/>
<path d="M519.904 383.324L545.706 409.126L563.954 390.878L538.151 365.076L519.904 383.324Z" fill="black" stroke="black" stroke-width="1.6129"/>
</g>
<defs>
<clipPath id="clip0_4_14">
<rect width="800" height="800" fill="white"/>
</clipPath>
</defs>
</svg>
