<svg width="800" height="800" viewBox="0 0 800 800" fill="none" xmlns="http://www.w3.org/2000/svg">
<path d="M500 312.5C500 319.4 505.6 325 512.5 325H687.5C694.4 325 700 319.4 700 312.5C700 305.6 694.4 300 687.5 300H512.5C505.6 300 500 305.6 500 312.5ZM512.5 375H687.5C694.4 375 700 369.4 700 362.5C700 355.6 694.4 350 687.5 350H512.5C505.6 350 500 355.6 500 362.5C500 369.4 505.6 375 512.5 375ZM512.5 425H687.5C694.4 425 700 419.4 700 412.5C700 405.6 694.4 400 687.5 400H512.5C505.6 400 500 405.6 500 412.5C500 419.4 505.6 425 512.5 425ZM512.5 475H687.5C694.4 475 700 469.4 700 462.5C700 455.6 694.4 450 687.5 450H512.5C505.6 450 500 455.6 500 462.5C500 469.4 505.6 475 512.5 475ZM400 450V300C400 286.2 388.8 275 375 275H350C336.2 275 325 286.2 325 300V450H300V350C300 336.2 288.8 325 275 325H250C236.2 325 225 336.2 225 350V450H200V325C200 311.2 188.8 300 175 300H150C136.2 300 125 311.2 125 325V450H112.5C105.6 450 100 455.6 100 462.5C100 469.4 105.6 475 112.5 475H412.5C419.4 475 425 469.4 425 462.5C425 455.6 419.4 450 412.5 450H400ZM175 450H150V325H175V450ZM275 450H250V350H275V450ZM375 450H350V300H375V450ZM725 100H75C33.575 100 0 133.575 0 175V575C0 616.425 33.575 650 75 650H300V725H262.5C255.6 725 250 730.6 250 737.5C250 744.4 255.6 750 262.5 750H537.5C544.4 750 550 744.4 550 737.5C550 730.6 544.4 725 537.5 725H500V650H725C766.425 650 800 616.425 800 575V175C800 133.575 766.425 100 725 100ZM475 725H325V650H475V725ZM775 575C775 602.625 752.625 625 725 625H75C47.375 625 25 602.625 25 575V175C25 147.375 47.375 125 75 125H725C752.625 125 775 147.375 775 175V575Z" fill="#111918"/>
<rect x="91" y="194" width="370" height="338" fill="#F7F8F9"/>
<path d="M126 460.5H152M427 460.5H404M404 460.5V302C404 290.954 395.046 282 384 282H372C360.954 282 352 290.954 352 302V460.5M404 460.5H352M352 460.5H302M302 460.5V351C302 339.954 293.046 331 282 331H278.5H273C261.954 331 253 339.954 253 351V460.5M302 460.5H253M253 460.5H204M204 460.5V327.5C204 316.454 195.046 307.5 184 307.5H172C160.954 307.5 152 316.454 152 327.5V460.5M204 460.5H152" stroke="#FAD25B" stroke-width="31" stroke-linecap="round"/>
</svg>
